<?xml version="1.0" encoding="UTF-8" standalone="no"?><svg xmlns="http://www.w3.org/2000/svg" xmlns:xlink="http://www.w3.org/1999/xlink" contentScriptType="application/ecmascript" contentStyleType="text/css" height="385px" preserveAspectRatio="none" style="width:761px;height:385px;background:#FFFFFF;" version="1.1" viewBox="0 0 761 385" width="761px" zoomAndPan="magnify"><defs><filter height="300%" id="fr2mv9c6m6k36" width="300%" x="-1" y="-1"><feGaussianBlur result="blurOut" stdDeviation="2.0"/><feColorMatrix in="blurOut" result="blurOut2" type="matrix" values="0 0 0 0 0 0 0 0 0 0 0 0 0 0 0 0 0 0 .4 0"/><feOffset dx="4.0" dy="4.0" in="blurOut2" result="blurOut3"/><feBlend in="SourceGraphic" in2="blurOut3" mode="normal"/></filter></defs><g><!--MD5=[3c32dd0f32fd73d4fa2d1cdeeabe5fcb]
entity Envy--><rect fill="#D3D3D3" filter="url(#fr2mv9c6m6k36)" height="46.4883" style="stroke:#A80036;stroke-width:1.5;" width="71" x="94.5" y="113"/><rect fill="#D3D3D3" height="10" style="stroke:#A80036;stroke-width:1.5;" width="15" x="145.5" y="118"/><rect fill="#D3D3D3" height="2" style="stroke:#A80036;stroke-width:1.5;" width="4" x="143.5" y="120"/><rect fill="#D3D3D3" height="2" style="stroke:#A80036;stroke-width:1.5;" width="4" x="143.5" y="124"/><text fill="#000000" font-family="sans-serif" font-size="14" lengthAdjust="spacing" textLength="31" x="109.5" y="146.5352">Envy</text><!--MD5=[e03fdbc18715942e1fea21e4ae5bb3dd]
entity Wai/Warp--><rect fill="#D3D3D3" filter="url(#fr2mv9c6m6k36)" height="46.4883" style="stroke:#A80036;stroke-width:1.5;" width="106" x="7" y="219"/><rect fill="#D3D3D3" height="10" style="stroke:#A80036;stroke-width:1.5;" width="15" x="93" y="224"/><rect fill="#D3D3D3" height="2" style="stroke:#A80036;stroke-width:1.5;" width="4" x="91" y="226"/><rect fill="#D3D3D3" height="2" style="stroke:#A80036;stroke-width:1.5;" width="4" x="91" y="230"/><text fill="#000000" font-family="sans-serif" font-size="14" lengthAdjust="spacing" textLength="66" x="22" y="252.5352">Wai/Warp</text><!--MD5=[8e485848d42bd9932f9301c707b47712]
entity Servant--><rect fill="#D3D3D3" filter="url(#fr2mv9c6m6k36)" height="46.4883" style="stroke:#A80036;stroke-width:1.5;" width="91" x="148.5" y="219"/><rect fill="#D3D3D3" height="10" style="stroke:#A80036;stroke-width:1.5;" width="15" x="219.5" y="224"/><rect fill="#D3D3D3" height="2" style="stroke:#A80036;stroke-width:1.5;" width="4" x="217.5" y="226"/><rect fill="#D3D3D3" height="2" style="stroke:#A80036;stroke-width:1.5;" width="4" x="217.5" y="230"/><text fill="#000000" font-family="sans-serif" font-size="14" lengthAdjust="spacing" textLength="51" x="163.5" y="252.5352">Servant</text><!--MD5=[76881597c47db72eae76d80d847092a9]
entity JSON:API--><rect fill="#D3D3D3" filter="url(#fr2mv9c6m6k36)" height="46.4883" style="stroke:#A80036;stroke-width:1.5;" width="99" x="274.5" y="219"/><rect fill="#D3D3D3" height="10" style="stroke:#A80036;stroke-width:1.5;" width="15" x="353.5" y="224"/><rect fill="#D3D3D3" height="2" style="stroke:#A80036;stroke-width:1.5;" width="4" x="351.5" y="226"/><rect fill="#D3D3D3" height="2" style="stroke:#A80036;stroke-width:1.5;" width="4" x="351.5" y="230"/><text fill="#000000" font-family="sans-serif" font-size="14" lengthAdjust="spacing" textLength="59" x="289.5" y="252.5352">JSON:API</text><!--MD5=[616984ef1af360725609b9975dcb18c9]
entity Opaleye--><rect fill="#D3D3D3" filter="url(#fr2mv9c6m6k36)" height="46.4883" style="stroke:#A80036;stroke-width:1.5;" width="95" x="617.5" y="219"/><rect fill="#D3D3D3" height="10" style="stroke:#A80036;stroke-width:1.5;" width="15" x="692.5" y="224"/><rect fill="#D3D3D3" height="2" style="stroke:#A80036;stroke-width:1.5;" width="4" x="690.5" y="226"/><rect fill="#D3D3D3" height="2" style="stroke:#A80036;stroke-width:1.5;" width="4" x="690.5" y="230"/><text fill="#000000" font-family="sans-serif" font-size="14" lengthAdjust="spacing" textLength="55" x="632.5" y="252.5352">Opaleye</text><!--MD5=[e5b7da8fa23ec8cac7d321a34f6e9ee1]
entity Application--><rect fill="#FEFECE" filter="url(#fr2mv9c6m6k36)" height="46.4883" style="stroke:#A80036;stroke-width:1.5;" width="118" x="276" y="7"/><rect fill="#FEFECE" height="10" style="stroke:#A80036;stroke-width:1.5;" width="15" x="374" y="12"/><rect fill="#FEFECE" height="2" style="stroke:#A80036;stroke-width:1.5;" width="4" x="372" y="14"/><rect fill="#FEFECE" height="2" style="stroke:#A80036;stroke-width:1.5;" width="4" x="372" y="18"/><text fill="#000000" font-family="sans-serif" font-size="14" lengthAdjust="spacing" textLength="78" x="291" y="40.5352">Application</text><!--MD5=[df821214ce5fd2040d2a958b60729a8e]
entity WebGateway--><rect fill="#FEFECE" filter="url(#fr2mv9c6m6k36)" height="46.4883" style="stroke:#A80036;stroke-width:1.5;" width="126" x="272" y="113"/><rect fill="#FEFECE" height="10" style="stroke:#A80036;stroke-width:1.5;" width="15" x="378" y="118"/><rect fill="#FEFECE" height="2" style="stroke:#A80036;stroke-width:1.5;" width="4" x="376" y="120"/><rect fill="#FEFECE" height="2" style="stroke:#A80036;stroke-width:1.5;" width="4" x="376" y="124"/><text fill="#000000" font-family="sans-serif" font-size="14" lengthAdjust="spacing" textLength="86" x="287" y="146.5352">WebGateway</text><!--MD5=[5d4bbb54cf6c5d7ebc66655cd3274d7e]
entity PersistenceGateway--><rect fill="#FEFECE" filter="url(#fr2mv9c6m6k36)" height="46.4883" style="stroke:#A80036;stroke-width:1.5;" width="174" x="567" y="113"/><rect fill="#FEFECE" height="10" style="stroke:#A80036;stroke-width:1.5;" width="15" x="721" y="118"/><rect fill="#FEFECE" height="2" style="stroke:#A80036;stroke-width:1.5;" width="4" x="719" y="120"/><rect fill="#FEFECE" height="2" style="stroke:#A80036;stroke-width:1.5;" width="4" x="719" y="124"/><text fill="#000000" font-family="sans-serif" font-size="14" lengthAdjust="spacing" textLength="134" x="582" y="146.5352">PersistenceGateway</text><!--MD5=[561d4d89b15c92f19e697a4350d7423f]
entity Usecases--><rect fill="#FEFECE" filter="url(#fr2mv9c6m6k36)" height="46.4883" style="stroke:#A80036;stroke-width:1.5;" width="102" x="480" y="219"/><rect fill="#FEFECE" height="10" style="stroke:#A80036;stroke-width:1.5;" width="15" x="562" y="224"/><rect fill="#FEFECE" height="2" style="stroke:#A80036;stroke-width:1.5;" width="4" x="560" y="226"/><rect fill="#FEFECE" height="2" style="stroke:#A80036;stroke-width:1.5;" width="4" x="560" y="230"/><text fill="#000000" font-family="sans-serif" font-size="14" lengthAdjust="spacing" textLength="62" x="495" y="252.5352">Usecases</text><!--MD5=[2fb3fc8e03cad589fa238654c03a9f58]
entity Domain--><rect fill="#FEFECE" filter="url(#fr2mv9c6m6k36)" height="46.4883" style="stroke:#A80036;stroke-width:1.5;" width="93" x="484.5" y="325"/><rect fill="#FEFECE" height="10" style="stroke:#A80036;stroke-width:1.5;" width="15" x="557.5" y="330"/><rect fill="#FEFECE" height="2" style="stroke:#A80036;stroke-width:1.5;" width="4" x="555.5" y="332"/><rect fill="#FEFECE" height="2" style="stroke:#A80036;stroke-width:1.5;" width="4" x="555.5" y="336"/><text fill="#000000" font-family="sans-serif" font-size="14" lengthAdjust="spacing" textLength="53" x="499.5" y="358.5352">Domain</text><!--MD5=[863491918147b3bfc259a6b13f29c901]
link Application to Envy--><path d="M291.52,53.06 C255.64,71.26 205.12,96.89 170.18,114.62 " fill="none" id="Application-to-Envy" style="stroke:#A80036;stroke-width:1.0;"/><polygon fill="#A80036" points="165.57,116.96,175.4063,116.4625,170.0306,114.7011,171.792,109.3254,165.57,116.96" style="stroke:#A80036;stroke-width:1.0;"/><!--MD5=[35efbaa57cdbbbc085513547c01237e2]
link Application to Wai/Warp--><path d="M310.42,53.17 C280.93,79.43 229.63,124 183,159 C156.05,179.23 124.38,200.29 99.92,216 " fill="none" id="Application-to-Wai/Warp" style="stroke:#A80036;stroke-width:1.0;"/><polygon fill="#A80036" points="95.45,218.86,105.1859,217.3729,99.6601,216.1627,100.8703,210.6368,95.45,218.86" style="stroke:#A80036;stroke-width:1.0;"/><!--MD5=[be92f461dbedd7b531ca12f701503cb1]
link Application to PersistenceGateway--><path d="M394.25,50.32 C447.16,67.57 524.82,92.88 581.43,111.34 " fill="none" id="Application-to-PersistenceGateway" style="stroke:#A80036;stroke-width:1.0;"/><polygon fill="#A80036" points="586.5,112.99,579.1909,106.3887,581.7481,111.4346,576.7022,113.9918,586.5,112.99" style="stroke:#A80036;stroke-width:1.0;"/><!--MD5=[04251b79e73ea387374d65fdeb2eaff8]
link Application to WebGateway--><path d="M335,53.06 C335,69.05 335,90.78 335,107.84 " fill="none" id="Application-to-WebGateway" style="stroke:#A80036;stroke-width:1.0;"/><polygon fill="#A80036" points="335,112.98,339,103.98,335,107.98,331,103.98,335,112.98" style="stroke:#A80036;stroke-width:1.0;"/><!--MD5=[5c8878eb889b62d6773f742daf1d8b73]
link Application to Usecases--><path d="M356.95,53.06 C373.15,69.45 395.65,92.43 415,113 C447.57,147.63 484.28,188.45 507.52,214.52 " fill="none" id="Application-to-Usecases" style="stroke:#A80036;stroke-width:1.0;"/><polygon fill="#A80036" points="511.13,218.57,508.1203,209.1923,507.8002,214.8401,502.1524,214.5199,511.13,218.57" style="stroke:#A80036;stroke-width:1.0;"/><!--MD5=[15c53561052c65f611b74b8c55017c89]
link WebGateway to Domain--><path d="M355.6,159.08 C392.07,198.15 467.79,279.28 506.73,320.99 " fill="none" id="WebGateway-to-Domain" style="stroke:#A80036;stroke-width:1.0;"/><polygon fill="#A80036" points="510.38,324.9,507.1439,315.598,506.9608,321.2519,501.3069,321.0687,510.38,324.9" style="stroke:#A80036;stroke-width:1.0;"/><!--MD5=[17b65b64c36e7e1262853368fb5728da]
link WebGateway to Usecases--><path d="M376.57,159.06 C408.27,175.88 451.92,199.04 484.73,216.45 " fill="none" id="WebGateway-to-Usecases" style="stroke:#A80036;stroke-width:1.0;"/><polygon fill="#A80036" points="489.49,218.98,483.4155,211.2275,485.0735,216.636,479.6651,218.2939,489.49,218.98" style="stroke:#A80036;stroke-width:1.0;"/><!--MD5=[c647392e559dfca0c57b8c1eb5ecee8a]
link WebGateway to Servant--><path d="M305.1,159.06 C282.57,175.67 251.66,198.47 228.16,215.81 " fill="none" id="WebGateway-to-Servant" style="stroke:#A80036;stroke-width:1.0;"/><polygon fill="#A80036" points="223.86,218.98,233.4773,216.8568,227.8838,216.0121,228.7286,210.4186,223.86,218.98" style="stroke:#A80036;stroke-width:1.0;"/><!--MD5=[d7e1a19c5b52b905c1a5cbfb74e462d4]
link WebGateway to JSON:API--><path d="M332.67,159.06 C330.98,175.05 328.68,196.78 326.87,213.84 " fill="none" id="WebGateway-to-JSON:API" style="stroke:#A80036;stroke-width:1.0;"/><polygon fill="#A80036" points="326.33,218.98,331.2591,210.4533,326.8586,214.008,323.304,209.6075,326.33,218.98" style="stroke:#A80036;stroke-width:1.0;"/><!--MD5=[fb32820c1cceae0932b0424818d1980c]
link WebGateway to Wai/Warp--><path d="M276.68,159.06 C229.88,176.75 164.53,201.47 117.86,219.12 " fill="none" id="WebGateway-to-Wai/Warp" style="stroke:#A80036;stroke-width:1.0;"/><polygon fill="#A80036" points="113.11,220.91,122.9435,221.459,117.7852,219.1372,120.107,213.9788,113.11,220.91" style="stroke:#A80036;stroke-width:1.0;"/><!--MD5=[887d0cdf4f991332da9b4c744ad0bb31]
link PersistenceGateway to Usecases--><path d="M627.91,159.06 C608.35,175.6 581.52,198.28 561.05,215.59 " fill="none" id="PersistenceGateway-to-Usecases" style="stroke:#A80036;stroke-width:1.0;"/><polygon fill="#A80036" points="557.05,218.98,566.5038,216.2185,560.8664,215.7496,561.3352,210.1123,557.05,218.98" style="stroke:#A80036;stroke-width:1.0;"/><!--MD5=[2f1e0934fa119936c1366f16c04d17c8]
link PersistenceGateway to Domain--><path d="M683.33,159.19 C713.88,185.07 754.16,228.92 730,265 C697.41,313.68 630.09,333.49 582.81,341.53 " fill="none" id="PersistenceGateway-to-Domain" style="stroke:#A80036;stroke-width:1.0;"/><polygon fill="#A80036" points="577.73,342.37,587.2535,344.8807,582.6658,341.5711,585.9753,336.9834,577.73,342.37" style="stroke:#A80036;stroke-width:1.0;"/><!--MD5=[79f8e041831b2b5c07cb0bcb1cbf4857]
link PersistenceGateway to Opaleye--><path d="M656.33,159.06 C658.02,175.05 660.32,196.78 662.13,213.84 " fill="none" id="PersistenceGateway-to-Opaleye" style="stroke:#A80036;stroke-width:1.0;"/><polygon fill="#A80036" points="662.67,218.98,665.696,209.6075,662.1414,214.008,657.7409,210.4533,662.67,218.98" style="stroke:#A80036;stroke-width:1.0;"/><!--MD5=[bc1b15429f8e300b92776f038d78b455]
link Usecases to Domain--><path d="M531,265.06 C531,281.05 531,302.78 531,319.84 " fill="none" id="Usecases-to-Domain" style="stroke:#A80036;stroke-width:1.0;"/><polygon fill="#A80036" points="531,324.98,535,315.98,531,319.98,527,315.98,531,324.98" style="stroke:#A80036;stroke-width:1.0;"/><!--MD5=[d78e5ae4d21b62f98a247eecdc468ec2]
@startuml dependencies

[Envy]#LightGrey
[Wai/Warp]#LightGrey
[Servant]#LightGrey
[JSON:API]#LightGrey
[Opaleye]#LightGrey

[Application]
[WebGateway]
[PersistenceGateway]
[Usecases]
[Domain]

[Application] - -> [Envy]
[Application] - -> [Wai/Warp]
[Application] - -> [PersistenceGateway]
[Application] - -> [WebGateway]
[Application] - -> [Usecases]
[WebGateway] - -> [Domain]
[WebGateway] - -> [Usecases]
[WebGateway] - -> [Servant]
[WebGateway] - -> [JSON:API]
[WebGateway] - -> [Wai/Warp]
[PersistenceGateway] - -> [Usecases]
[PersistenceGateway] - -> [Domain]
[PersistenceGateway] - -> [Opaleye]
[Usecases] - -> [Domain]

@enduml

PlantUML version 1.2021.6(Fri May 14 09:09:51 CEST 2021)
(GPL source distribution)
Java Runtime: OpenJDK Runtime Environment
JVM: OpenJDK 64-Bit Server VM
Default Encoding: UTF-8
Language: de
Country: DE
--></g></svg>