<?xml version="1.0" encoding="UTF-8" standalone="no"?><svg xmlns="http://www.w3.org/2000/svg" xmlns:xlink="http://www.w3.org/1999/xlink" contentScriptType="application/ecmascript" contentStyleType="text/css" height="385px" preserveAspectRatio="none" style="width:761px;height:385px;background:#FFFFFF;" version="1.1" viewBox="0 0 761 385" width="761px" zoomAndPan="magnify"><defs><filter height="300%" id="fldgjq87dsldp" width="300%" x="-1" y="-1"><feGaussianBlur result="blurOut" stdDeviation="2.0"/><feColorMatrix in="blurOut" result="blurOut2" type="matrix" values="0 0 0 0 0 0 0 0 0 0 0 0 0 0 0 0 0 0 .4 0"/><feOffset dx="4.0" dy="4.0" in="blurOut2" result="blurOut3"/><feBlend in="SourceGraphic" in2="blurOut3" mode="normal"/></filter></defs><g><!--MD5=[3c32dd0f32fd73d4fa2d1cdeeabe5fcb]
entity Envy--><rect fill="#D3D3D3" filter="url(#fldgjq87dsldp)" height="46.4883" style="stroke:#A80036;stroke-width:1.5;" width="71" x="94.5" y="113"/><rect fill="#D3D3D3" height="10" style="stroke:#A80036;stroke-width:1.5;" width="15" x="145.5" y="118"/><rect fill="#D3D3D3" height="2" style="stroke:#A80036;stroke-width:1.5;" width="4" x="143.5" y="120"/><rect fill="#D3D3D3" height="2" style="stroke:#A80036;stroke-width:1.5;" width="4" x="143.5" y="124"/><text fill="#000000" font-family="sans-serif" font-size="14" lengthAdjust="spacing" textLength="31" x="109.5" y="146.5352">Envy</text><!--MD5=[e03fdbc18715942e1fea21e4ae5bb3dd]
entity Wai/Warp--><rect fill="#D3D3D3" filter="url(#fldgjq87dsldp)" height="46.4883" style="stroke:#A80036;stroke-width:1.5;" width="106" x="7" y="219"/><rect fill="#D3D3D3" height="10" style="stroke:#A80036;stroke-width:1.5;" width="15" x="93" y="224"/><rect fill="#D3D3D3" height="2" style="stroke:#A80036;stroke-width:1.5;" width="4" x="91" y="226"/><rect fill="#D3D3D3" height="2" style="stroke:#A80036;stroke-width:1.5;" width="4" x="91" y="230"/><text fill="#000000" font-family="sans-serif" font-size="14" lengthAdjust="spacing" textLength="66" x="22" y="252.5352">Wai/Warp</text><!--MD5=[8e485848d42bd9932f9301c707b47712]
entity Servant--><rect fill="#D3D3D3" filter="url(#fldgjq87dsldp)" height="46.4883" style="stroke:#A80036;stroke-width:1.5;" width="91" x="148.5" y="219"/><rect fill="#D3D3D3" height="10" style="stroke:#A80036;stroke-width:1.5;" width="15" x="219.5" y="224"/><rect fill="#D3D3D3" height="2" style="stroke:#A80036;stroke-width:1.5;" width="4" x="217.5" y="226"/><rect fill="#D3D3D3" height="2" style="stroke:#A80036;stroke-width:1.5;" width="4" x="217.5" y="230"/><text fill="#000000" font-family="sans-serif" font-size="14" lengthAdjust="spacing" textLength="51" x="163.5" y="252.5352">Servant</text><!--MD5=[76881597c47db72eae76d80d847092a9]
entity JSON:API--><rect fill="#D3D3D3" filter="url(#fldgjq87dsldp)" height="46.4883" style="stroke:#A80036;stroke-width:1.5;" width="99" x="274.5" y="219"/><rect fill="#D3D3D3" height="10" style="stroke:#A80036;stroke-width:1.5;" width="15" x="353.5" y="224"/><rect fill="#D3D3D3" height="2" style="stroke:#A80036;stroke-width:1.5;" width="4" x="351.5" y="226"/><rect fill="#D3D3D3" height="2" style="stroke:#A80036;stroke-width:1.5;" width="4" x="351.5" y="230"/><text fill="#000000" font-family="sans-serif" font-size="14" lengthAdjust="spacing" textLength="59" x="289.5" y="252.5352">JSON:API</text><!--MD5=[616984ef1af360725609b9975dcb18c9]
entity Opaleye--><rect fill="#D3D3D3" filter="url(#fldgjq87dsldp)" height="46.4883" style="stroke:#A80036;stroke-width:1.5;" width="95" x="617.5" y="219"/><rect fill="#D3D3D3" height="10" style="stroke:#A80036;stroke-width:1.5;" width="15" x="692.5" y="224"/><rect fill="#D3D3D3" height="2" style="stroke:#A80036;stroke-width:1.5;" width="4" x="690.5" y="226"/><rect fill="#D3D3D3" height="2" style="stroke:#A80036;stroke-width:1.5;" width="4" x="690.5" y="230"/><text fill="#000000" font-family="sans-serif" font-size="14" lengthAdjust="spacing" textLength="55" x="632.5" y="252.5352">Opaleye</text><!--MD5=[e5b7da8fa23ec8cac7d321a34f6e9ee1]
entity Application--><rect fill="#FEFECE" filter="url(#fldgjq87dsldp)" height="46.4883" style="stroke:#A80036;stroke-width:1.5;" width="118" x="281" y="7"/><rect fill="#FEFECE" height="10" style="stroke:#A80036;stroke-width:1.5;" width="15" x="379" y="12"/><rect fill="#FEFECE" height="2" style="stroke:#A80036;stroke-width:1.5;" width="4" x="377" y="14"/><rect fill="#FEFECE" height="2" style="stroke:#A80036;stroke-width:1.5;" width="4" x="377" y="18"/><text fill="#000000" font-family="sans-serif" font-size="14" lengthAdjust="spacing" textLength="78" x="296" y="40.5352">Application</text><!--MD5=[98661fde19cf7befa7ac5a16b6e563d0]
entity WebInteractor--><rect fill="#FEFECE" filter="url(#fldgjq87dsldp)" height="46.4883" style="stroke:#A80036;stroke-width:1.5;" width="136" x="272" y="113"/><rect fill="#FEFECE" height="10" style="stroke:#A80036;stroke-width:1.5;" width="15" x="388" y="118"/><rect fill="#FEFECE" height="2" style="stroke:#A80036;stroke-width:1.5;" width="4" x="386" y="120"/><rect fill="#FEFECE" height="2" style="stroke:#A80036;stroke-width:1.5;" width="4" x="386" y="124"/><text fill="#000000" font-family="sans-serif" font-size="14" lengthAdjust="spacing" textLength="96" x="287" y="146.5352">WebInteractor</text><!--MD5=[e7b4ba715b9378c57f39440bbe1913bc]
entity Persistence--><rect fill="#FEFECE" filter="url(#fldgjq87dsldp)" height="46.4883" style="stroke:#A80036;stroke-width:1.5;" width="117" x="589.5" y="113"/><rect fill="#FEFECE" height="10" style="stroke:#A80036;stroke-width:1.5;" width="15" x="686.5" y="118"/><rect fill="#FEFECE" height="2" style="stroke:#A80036;stroke-width:1.5;" width="4" x="684.5" y="120"/><rect fill="#FEFECE" height="2" style="stroke:#A80036;stroke-width:1.5;" width="4" x="684.5" y="124"/><text fill="#000000" font-family="sans-serif" font-size="14" lengthAdjust="spacing" textLength="77" x="604.5" y="146.5352">Persistence</text><!--MD5=[561d4d89b15c92f19e697a4350d7423f]
entity Usecases--><rect fill="#FEFECE" filter="url(#fldgjq87dsldp)" height="46.4883" style="stroke:#A80036;stroke-width:1.5;" width="102" x="480" y="219"/><rect fill="#FEFECE" height="10" style="stroke:#A80036;stroke-width:1.5;" width="15" x="562" y="224"/><rect fill="#FEFECE" height="2" style="stroke:#A80036;stroke-width:1.5;" width="4" x="560" y="226"/><rect fill="#FEFECE" height="2" style="stroke:#A80036;stroke-width:1.5;" width="4" x="560" y="230"/><text fill="#000000" font-family="sans-serif" font-size="14" lengthAdjust="spacing" textLength="62" x="495" y="252.5352">Usecases</text><!--MD5=[2fb3fc8e03cad589fa238654c03a9f58]
entity Domain--><rect fill="#FEFECE" filter="url(#fldgjq87dsldp)" height="46.4883" style="stroke:#A80036;stroke-width:1.5;" width="93" x="484.5" y="325"/><rect fill="#FEFECE" height="10" style="stroke:#A80036;stroke-width:1.5;" width="15" x="557.5" y="330"/><rect fill="#FEFECE" height="2" style="stroke:#A80036;stroke-width:1.5;" width="4" x="555.5" y="332"/><rect fill="#FEFECE" height="2" style="stroke:#A80036;stroke-width:1.5;" width="4" x="555.5" y="336"/><text fill="#000000" font-family="sans-serif" font-size="14" lengthAdjust="spacing" textLength="53" x="499.5" y="358.5352">Domain</text><!--MD5=[863491918147b3bfc259a6b13f29c901]
link Application to Envy--><path d="M295.46,53.06 C258.48,71.37 206.31,97.21 170.49,114.95 " fill="none" id="Application-to-Envy" style="stroke:#A80036;stroke-width:1.0;"/><polygon fill="#A80036" points="165.76,117.29,175.6009,116.8931,170.2435,115.0768,172.0597,109.7195,165.76,117.29" style="stroke:#A80036;stroke-width:1.0;"/><!--MD5=[35efbaa57cdbbbc085513547c01237e2]
link Application to Wai/Warp--><path d="M314.49,53.07 C283.92,79.22 230.81,123.7 183,159 C155.79,179.09 123.99,200.23 99.55,216.01 " fill="none" id="Application-to-Wai/Warp" style="stroke:#A80036;stroke-width:1.0;"/><polygon fill="#A80036" points="95.07,218.89,104.8036,217.3879,99.2759,216.1862,100.4776,210.6585,95.07,218.89" style="stroke:#A80036;stroke-width:1.0;"/><!--MD5=[b2299912f9e8a569b246203ffc603393]
link Application to Persistence--><path d="M399.02,50.93 C452.18,68.88 530.1,95.19 584.57,113.58 " fill="none" id="Application-to-Persistence" style="stroke:#A80036;stroke-width:1.0;"/><polygon fill="#A80036" points="589.44,115.23,582.1969,108.5564,584.7038,113.6274,579.6327,116.1343,589.44,115.23" style="stroke:#A80036;stroke-width:1.0;"/><!--MD5=[40b4b1eea9fa0ab5ad8bb45ee3096e6d]
link Application to WebInteractor--><path d="M340,53.06 C340,69.05 340,90.78 340,107.84 " fill="none" id="Application-to-WebInteractor" style="stroke:#A80036;stroke-width:1.0;"/><polygon fill="#A80036" points="340,112.98,344,103.98,340,107.98,336,103.98,340,112.98" style="stroke:#A80036;stroke-width:1.0;"/><!--MD5=[5c8878eb889b62d6773f742daf1d8b73]
link Application to Usecases--><path d="M364.52,53.28 C381.89,69.4 405.49,91.95 425,113 C456.28,146.74 489.72,188.12 510.49,214.52 " fill="none" id="Application-to-Usecases" style="stroke:#A80036;stroke-width:1.0;"/><polygon fill="#A80036" points="513.72,218.63,511.3232,209.0772,510.6385,214.6925,505.0232,214.0077,513.72,218.63" style="stroke:#A80036;stroke-width:1.0;"/><!--MD5=[f35b60195d9d597eed202356e2276281]
link WebInteractor to Domain--><path d="M360.08,159.08 C395.62,198.15 469.41,279.28 507.35,320.99 " fill="none" id="WebInteractor-to-Domain" style="stroke:#A80036;stroke-width:1.0;"/><polygon fill="#A80036" points="510.9,324.9,507.8147,315.5469,507.5402,321.1971,501.89,320.9226,510.9,324.9" style="stroke:#A80036;stroke-width:1.0;"/><!--MD5=[e892699953f363a57fc1aa3ffac3934b]
link WebInteractor to Usecases--><path d="M380.51,159.06 C411.4,175.88 453.94,199.04 485.91,216.45 " fill="none" id="WebInteractor-to-Usecases" style="stroke:#A80036;stroke-width:1.0;"/><polygon fill="#A80036" points="490.55,218.98,484.5751,211.1506,486.1638,216.5797,480.7346,218.1685,490.55,218.98" style="stroke:#A80036;stroke-width:1.0;"/><!--MD5=[bb6bedef23f73b9eaf3153f751a4d729]
link WebInteractor to Servant--><path d="M309.04,159.06 C285.62,175.74 253.44,198.66 229.07,216.02 " fill="none" id="WebInteractor-to-Servant" style="stroke:#A80036;stroke-width:1.0;"/><polygon fill="#A80036" points="224.92,218.98,234.5712,217.0166,228.9925,216.0792,229.9299,210.5006,224.92,218.98" style="stroke:#A80036;stroke-width:1.0;"/><!--MD5=[aa93cce1e5f67947b714d14d04984dac]
link WebInteractor to JSON:API--><path d="M336.61,159.06 C334.15,175.05 330.8,196.78 328.18,213.84 " fill="none" id="WebInteractor-to-JSON:API" style="stroke:#A80036;stroke-width:1.0;"/><polygon fill="#A80036" points="327.39,218.98,332.7066,210.6894,328.1471,214.0376,324.7988,209.4781,327.39,218.98" style="stroke:#A80036;stroke-width:1.0;"/><!--MD5=[7e032e7d70a050414ea8edd7938e52ec]
link WebInteractor to Wai/Warp--><path d="M280.62,159.06 C232.66,176.87 165.56,201.79 117.98,219.46 " fill="none" id="WebInteractor-to-Wai/Warp" style="stroke:#A80036;stroke-width:1.0;"/><polygon fill="#A80036" points="113.15,221.26,122.9799,221.8715,117.8363,219.5169,120.1909,214.3734,113.15,221.26" style="stroke:#A80036;stroke-width:1.0;"/><!--MD5=[9ed217f5fdf62fd90909ed52f12abfe6]
link Persistence to Usecases--><path d="M623.19,159.06 C604.57,175.6 579.06,198.28 559.59,215.59 " fill="none" id="Persistence-to-Usecases" style="stroke:#A80036;stroke-width:1.0;"/><polygon fill="#A80036" points="555.78,218.98,565.1577,215.9703,559.5099,215.6502,559.8301,210.0024,555.78,218.98" style="stroke:#A80036;stroke-width:1.0;"/><!--MD5=[9c9378b769faf4eba257be2c86a371fe]
link Persistence to Domain--><path d="M679.44,159.15 C711.9,184.81 754.59,228.27 730,265 C697.41,313.68 630.09,333.49 582.81,341.53 " fill="none" id="Persistence-to-Domain" style="stroke:#A80036;stroke-width:1.0;"/><polygon fill="#A80036" points="577.73,342.37,587.2535,344.8807,582.6658,341.5711,585.9753,336.9834,577.73,342.37" style="stroke:#A80036;stroke-width:1.0;"/><!--MD5=[f6ce9f79b0187702d23190a4dc18335b]
link Persistence to Opaleye--><path d="M651.61,159.06 C654.22,175.05 657.77,196.78 660.56,213.84 " fill="none" id="Persistence-to-Opaleye" style="stroke:#A80036;stroke-width:1.0;"/><polygon fill="#A80036" points="661.4,218.98,663.9063,209.4554,660.5989,214.0446,656.0097,210.7372,661.4,218.98" style="stroke:#A80036;stroke-width:1.0;"/><!--MD5=[bc1b15429f8e300b92776f038d78b455]
link Usecases to Domain--><path d="M531,265.06 C531,281.05 531,302.78 531,319.84 " fill="none" id="Usecases-to-Domain" style="stroke:#A80036;stroke-width:1.0;"/><polygon fill="#A80036" points="531,324.98,535,315.98,531,319.98,527,315.98,531,324.98" style="stroke:#A80036;stroke-width:1.0;"/><!--MD5=[bd3f1f5069d2d2dabf5043d3c9e72aaf]
@startuml dependencies

[Envy]#LightGrey
[Wai/Warp]#LightGrey
[Servant]#LightGrey
[JSON:API]#LightGrey
[Opaleye]#LightGrey

[Application]
[WebInteractor]
[Persistence]
[Usecases]
[Domain]

[Application] - -> [Envy]
[Application] - -> [Wai/Warp]
[Application] - -> [Persistence]
[Application] - -> [WebInteractor]
[Application] - -> [Usecases]
[WebInteractor] - -> [Domain]
[WebInteractor] - -> [Usecases]
[WebInteractor] - -> [Servant]
[WebInteractor] - -> [JSON:API]
[WebInteractor] - -> [Wai/Warp]
[Persistence] - -> [Usecases]
[Persistence] - -> [Domain]
[Persistence] - -> [Opaleye]
[Usecases] - -> [Domain]

@enduml

PlantUML version 1.2021.6(Fri May 14 09:09:51 CEST 2021)
(GPL source distribution)
Java Runtime: OpenJDK Runtime Environment
JVM: OpenJDK 64-Bit Server VM
Default Encoding: UTF-8
Language: de
Country: DE
--></g></svg>